<svg width="50" height="51" viewBox="0 0 50 51" fill="none" xmlns="http://www.w3.org/2000/svg">
<path fill-rule="evenodd" clip-rule="evenodd" d="M45.5358 15.4143L43.8964 17.0545C40.3445 13.9569 35.7902 12.2245 31.0549 12.2245C27.8667 12.2245 24.6802 13.0446 21.948 14.502L28.8691 7.57729C29.4156 7.9412 30.0525 8.12402 30.6912 8.12402C31.6013 8.12402 32.5132 7.7601 33.2407 7.03056C34.6973 5.57318 34.6973 3.294 33.2407 1.83662C32.5115 1.10708 31.6013 0.743164 30.6912 0.743164C29.781 0.743164 28.8691 1.10708 28.1416 1.83662C26.9582 3.1129 26.7755 4.93419 27.5952 6.30101L18.852 15.0487L17.2127 13.4085L12.7506 17.8729L14.3899 19.5131L5.46405 28.4436C4.91761 28.0797 4.28065 27.8968 3.64199 27.8968C2.73181 27.8968 1.81993 28.2608 1.09247 28.9903C-0.364156 30.4477 -0.364156 32.7269 1.09247 34.1842C1.82164 34.8215 2.73181 35.1871 3.64199 35.1871C4.55217 35.1871 5.46405 34.8232 6.19151 34.0937C7.37491 32.9097 7.55763 31.0867 6.73796 29.6293L13.6591 22.7046C10.0167 29.7216 10.8363 38.4692 16.2086 44.6644L14.5692 46.3951L19.1235 50.8595L23.5856 46.3951L19.1235 41.9307L17.5747 43.4804C12.2929 37.2835 12.0197 28.3547 16.4818 21.794L17.211 22.5235L21.7653 18.0591L20.9456 17.3296C23.8606 15.2332 27.4125 14.1398 31.0549 14.1398C35.336 14.1398 39.3421 15.6894 42.6208 18.423L40.9815 19.9727L45.5358 24.4371L49.9979 19.9727L45.5358 15.416V15.4143ZM21.0361 46.3951L19.1236 48.3087L17.211 46.3951L19.1236 44.4815L21.0361 46.3951V46.3951ZM29.4156 3.20356C29.7793 2.83964 30.2352 2.65683 30.6912 2.65683C31.1471 2.65683 31.6014 2.83964 31.9668 3.20356C32.696 3.9331 32.696 5.02656 31.9668 5.7544C31.6031 6.11831 31.1471 6.30113 30.6912 6.30113C30.2352 6.30113 29.781 6.11831 29.4156 5.7544C28.6864 5.11711 28.6864 3.93139 29.4156 3.20356V3.20356ZM4.91587 32.8175C4.55215 33.1814 4.0962 33.3642 3.64026 33.3642C3.18432 33.3642 2.73008 33.1814 2.36465 32.8175C2.00092 32.5441 1.8182 32.0879 1.8182 31.5412C1.8182 31.085 2.00092 30.6306 2.36465 30.2649C2.72837 29.8993 3.18432 29.7182 3.64026 29.7182C4.0962 29.7182 4.55044 29.901 4.91587 30.2649C5.64504 30.9945 5.64504 32.1785 4.91587 32.8158V32.8175ZM17.1205 19.9693L15.2079 18.0557L17.1205 16.1422L19.0331 18.0557L17.1205 19.9693V19.9693ZM45.5358 21.8827L43.6232 19.9692L45.5358 18.0556L47.4483 19.9692L45.5358 21.8827V21.8827Z" fill="#333333"/>
</svg>
